<svg xmlns="http://www.w3.org/2000/svg" width="604" height="580">
	
	<path fill="#0052b9" fill-rule="evenodd" clip-rule="evenodd" d="M214.328 576.151c-36.027-3.099-69.003-22.756-88.533-61.7-36.958-73.696-73.161-147.773-109.483-221.786-9.849-20.07-13.277-41.396-9.949-63.614 5.785-38.616 25.869-67.643 60.665-85.033 87.234-43.596 174.814-86.503 262.389-129.415 20.17-9.883 41.689-13.148 64.051-9.544 39.172 6.313 67.649 27.393 85.215 62.778 35.831 72.182 71.292 144.548 107.01 216.787 7.86 15.897 12.521 32.64 12.535 50.289.023 27.336-8.492 51.904-26.056 73.134-11.024 13.326-24.682 23.085-40.13 30.679-85.619 42.095-171.178 84.313-256.777 126.449-16.971 8.355-34.951 12.093-60.937 10.976zm87.457-126.238v.036c37.237 0 74.475.027 111.711-.036 4.354-.006 8.754-.187 13.051-.828 29.064-4.339 52.348-31.487 52.352-60.901.012-65.229.049-130.456-.086-195.684-.01-5.047-.752-10.237-2.069-15.114-7.695-28.503-32.354-47.196-62.156-47.218-74.599-.051-149.198-.045-223.798.042a90.776 90.776 0 0 0-15.599 1.398c-28.372 5.008-50.646 31.577-50.666 60.358-.043 64.853-.052 129.706.046 194.559.007 4.949.585 9.97 1.542 14.831 5.205 26.451 31.716 48.426 58.712 48.521 38.987.14 77.973.036 116.96.036zm84.918 28.897l-.129-.839h-4.255c-65.865 0-131.729.015-197.595-.039-3.851-.004-7.75-.285-11.542-.93-15.635-2.658-29.773-8.806-42.258-18.656-.407-.321-.962-.456-2.099-.975.685 1.575 1.029 2.466 1.451 3.32 6.784 13.745 13.482 27.533 20.386 41.218 21.037 41.696 70.658 58.462 112.611 37.941 40.173-19.649 80.247-39.502 120.358-59.275 1.057-.521 2.05-1.174 3.072-1.765zM217.362 101.137l.158.977h4.417c53.226 0 106.451-.01 159.676.008 11.869.004 23.741-.031 35.606.189 18.83.351 35.998 5.93 51.367 16.897 1.729 1.234 3.482 2.434 6.014 4.197-.544-1.472-.669-1.929-.874-2.346-7.304-14.863-14.017-30.056-22.052-44.515-16.101-28.975-41.183-43.887-74.365-44.717-13.714-.343-26.569 3.356-38.828 9.413-39.302 19.418-78.64 38.768-117.96 58.152-1.077.531-2.107 1.161-3.159 1.745zm-114.184 55.71c-11.052 5.842-21.389 11-31.417 16.701-8.56 4.867-15.659 11.645-21.354 19.651-20.125 28.292-22.906 58.291-7.726 89.569C59.537 317.5 76.758 352.056 93.83 386.683c.562 1.14 1.233 2.226 1.854 3.337l.767-.246v-4.38c0-64.85-.026-129.699.058-194.547.005-4.329.488-8.729 1.368-12.968 1.376-6.633 3.282-13.154 5.301-21.032zm404.779 33.751c-.329.057-.658.112-.989.168v4.375c0 64.321.048 128.641-.082 192.96-.011 5.681-.812 11.431-1.908 17.019-1.155 5.896-3.104 11.636-4.919 18.219 9.788-4.974 19.176-9.472 28.279-14.484 4.556-2.508 8.939-5.569 12.811-9.04 29.634-26.564 37.218-66.324 19.631-102.109-16.418-33.404-32.887-66.782-49.337-100.169-1.145-2.322-2.323-4.627-3.486-6.939z"/>
	
	<path  fill="#0052b9" fill-rule="evenodd" clip-rule="evenodd" d="M159.591 255.024c7.82-10.171 16.874-15.585 28.791-15.351 11.533.226 21.441 3.344 26.975 15.083 2.68-2.685 4.88-5.178 7.373-7.335 11.219-9.711 31.63-10.47 43.568-1.649 7.643 5.647 10.832 13.86 11.003 22.803.42 21.854.138 43.72.138 65.873h-25.088v-4.439c-.006-16.498.071-32.996-.081-49.493a51.764 51.764 0 0 0-1.391-11.458c-1.361-5.697-5.381-8.774-11.207-9.343-12.013-1.174-19.257 4.168-19.818 16.278-.826 17.83-.619 35.708-.847 53.565-.021 1.596-.003 3.191-.003 4.977h-25.066v-4.052c0-16.748.002-33.496-.003-50.244-.001-1.625-.002-3.251-.086-4.873-.471-9.119-4.436-14.693-11.06-15.597-10.095-1.376-18.047 3.021-20.635 11.915-1.028 3.532-1.37 7.366-1.404 11.068-.148 15.746-.063 31.495-.063 47.242v4.556h-24.981v-92.072h23.329l.556 12.546zM467.856 334.734c-6.645 0-14.13.077-21.609-.098-.93-.022-2.244-1.204-2.65-2.158-.753-1.771-.966-3.771-1.553-6.32-5.726 5.168-11.895 8.403-19.002 9.703-10.088 1.845-20.033 2.148-29.641-2.301-10.81-5.005-15-16.05-13.954-26.999 1.459-15.274 11.642-21.37 25.124-23.837 8.191-1.5 16.474-2.509 24.711-3.765a29.862 29.862 0 0 0 3.634-.792c5.812-1.648 8.424-4.434 8.483-8.981.081-6.218-2.78-10.883-8.659-11.794-5.036-.781-10.374-.538-15.455.156-5.199.709-8.229 4.599-9.186 9.637-.492 2.592-1.61 3.146-3.977 3.106-7.216-.121-14.437-.044-21.657-.044.332-13.323 9.049-24.012 23.363-27.927 14.209-3.888 28.604-3.931 42.781.38 12.222 3.717 17.862 11.67 17.863 24.398 0 12.74-.172 25.482.056 38.218.174 9.665.854 19.322 1.328 29.418zm-26.132-44.287c-5.747 1.192-10.708 2.146-15.63 3.264-4.95 1.125-10.045 1.942-14.743 3.758-5.119 1.979-7.366 7.064-6.639 12.572.72 5.445 3.666 8.717 9.172 9.918 1.938.422 3.952.6 5.939.68 10.755.438 18.861-4.822 20.591-14.007 1.004-5.333.916-10.871 1.31-16.185zM375.026 306.507c-4.364 13.531-11.88 23.434-25.195 27.786-12.452 4.069-25.139 4.303-37.384-.533-17.824-7.04-25.937-21.363-27.702-39.707-.892-9.274.038-18.49 4.052-27.06 8.322-17.766 22.491-26.695 42.023-27.297 13.488-.416 25.006 3.927 33.982 14.212 6.948 7.96 10.366 17.466 11.663 27.817.326 2.596.362 5.228.687 7.824.456 3.649-.748 4.979-4.698 4.937-19.366-.206-38.736-.098-58.104-.09-5.016.001-4.879.085-4.155 5.09 1.289 8.908 5.262 15.429 14.445 17.93 10.473 2.853 22.345-.183 27.724-9.304.457-.774 1.7-1.516 2.592-1.534 6.482-.131 12.969-.071 20.07-.071zm-64.933-28.128h41.061c-.546-12.334-9.167-20.482-20.737-19.965-12.03.538-20.661 8.902-20.324 19.965z"/>
	
</svg>